<?xml version="1.0" encoding="UTF-8"?>
<svg xmlns="http://www.w3.org/2000/svg" xmlns:xlink="http://www.w3.org/1999/xlink" width="25pt" height="25pt" viewBox="0 0 25 25" version="1.1">
<g id="surface1">
<path style=" stroke:none;fill-rule:nonzero;fill:rgb(0%,0%,0%);fill-opacity:1;" d="M 15.40625 3.40625 C 15.609375 3.40625 15.773438 3.242188 15.773438 3.039062 L 15.773438 1.933594 C 15.773438 1.730469 15.609375 1.566406 15.40625 1.566406 C 15.203125 1.566406 15.039062 1.730469 15.039062 1.933594 L 15.039062 3.039062 C 15.039062 3.242188 15.203125 3.40625 15.40625 3.40625 Z M 13.601562 3.472656 C 13.703125 3.648438 13.929688 3.710938 14.101562 3.609375 C 14.277344 3.511719 14.339844 3.289062 14.242188 3.113281 L 13.777344 2.289062 C 13.675781 2.113281 13.453125 2.050781 13.277344 2.148438 C 13.101562 2.25 13.039062 2.472656 13.140625 2.648438 Z M 16.707031 3.609375 C 16.882812 3.707031 17.105469 3.648438 17.207031 3.472656 L 17.671875 2.648438 C 17.769531 2.472656 17.707031 2.25 17.53125 2.148438 C 17.355469 2.050781 17.132812 2.113281 17.035156 2.289062 L 16.570312 3.113281 C 16.46875 3.289062 16.53125 3.511719 16.707031 3.613281 Z M 23.75 13.671875 L 20.78125 12.679688 C 20.609375 12.625 20.476562 12.5 20.40625 12.332031 L 18.753906 8.308594 C 18.46875 7.621094 17.804688 7.175781 17.058594 7.175781 L 17.039062 7.175781 L 17.039062 6.515625 C 17.039062 5.613281 16.308594 4.878906 15.40625 4.878906 C 14.503906 4.878906 13.769531 5.613281 13.769531 6.515625 L 13.769531 7.175781 L 11.28125 7.175781 C 11.28125 7.175781 11.28125 7.175781 11.277344 7.175781 L 1.832031 7.175781 C 0.820312 7.175781 0 7.996094 0 9.003906 L 0 11.421875 C 0 11.625 0.164062 11.789062 0.367188 11.789062 C 0.570312 11.789062 0.730469 11.625 0.730469 11.421875 L 0.730469 9.003906 C 0.730469 8.398438 1.226562 7.90625 1.832031 7.90625 L 10.914062 7.90625 L 10.914062 15.816406 L 0.730469 15.816406 L 0.730469 13.132812 C 0.730469 12.929688 0.570312 12.765625 0.367188 12.765625 C 0.164062 12.765625 0 12.929688 0 13.132812 L 0 18.894531 C 0 19.902344 0.820312 20.722656 1.832031 20.722656 L 2.769531 20.722656 C 2.949219 22.25 4.25 23.433594 5.824219 23.433594 C 7.394531 23.433594 8.695312 22.25 8.875 20.722656 L 15.550781 20.722656 C 15.730469 22.25 17.03125 23.433594 18.601562 23.433594 C 20.175781 23.433594 21.476562 22.25 21.65625 20.722656 L 23.167969 20.722656 C 24.179688 20.722656 25 19.902344 25 18.894531 L 25 15.40625 C 25 14.617188 24.496094 13.921875 23.75 13.671875 Z M 5.824219 22.703125 C 4.53125 22.703125 3.480469 21.648438 3.480469 20.359375 C 3.480469 19.066406 4.53125 18.015625 5.824219 18.015625 C 7.113281 18.015625 8.167969 19.066406 8.167969 20.359375 C 8.167969 21.648438 7.113281 22.703125 5.824219 22.703125 Z M 10.914062 19.992188 L 8.875 19.992188 C 8.695312 18.46875 7.394531 17.28125 5.824219 17.28125 C 4.25 17.28125 2.949219 18.46875 2.769531 19.992188 L 1.832031 19.992188 C 1.226562 19.992188 0.734375 19.5 0.734375 18.894531 L 0.734375 16.550781 L 10.914062 16.550781 Z M 14.5 6.515625 C 14.5 6.015625 14.90625 5.613281 15.40625 5.613281 C 15.902344 5.613281 16.308594 6.015625 16.308594 6.515625 L 16.308594 7.175781 L 14.5 7.175781 Z M 18.601562 22.703125 C 17.3125 22.703125 16.257812 21.648438 16.257812 20.359375 C 16.257812 19.066406 17.3125 18.015625 18.601562 18.015625 C 19.894531 18.015625 20.945312 19.066406 20.945312 20.359375 C 20.945312 21.648438 19.894531 22.703125 18.601562 22.703125 Z M 24.265625 15.816406 L 18.683594 15.816406 C 18.480469 15.816406 18.316406 15.980469 18.316406 16.183594 C 18.316406 16.386719 18.480469 16.550781 18.683594 16.550781 L 24.265625 16.550781 L 24.265625 18.894531 C 24.265625 19.5 23.773438 19.992188 23.167969 19.992188 L 21.65625 19.992188 C 21.476562 18.46875 20.175781 17.28125 18.601562 17.28125 C 17.03125 17.28125 15.730469 18.46875 15.550781 19.992188 L 11.644531 19.992188 L 11.644531 16.550781 L 16.972656 16.550781 C 17.175781 16.550781 17.339844 16.386719 17.339844 16.183594 C 17.339844 15.980469 17.175781 15.816406 16.972656 15.816406 L 11.644531 15.816406 L 11.644531 7.90625 L 17.058594 7.90625 C 17.507812 7.90625 17.90625 8.175781 18.078125 8.585938 L 19.730469 12.613281 C 19.878906 12.972656 20.175781 13.253906 20.546875 13.375 L 23.515625 14.367188 C 23.964844 14.515625 24.265625 14.933594 24.265625 15.40625 Z M 17.394531 9.023438 C 17.300781 8.789062 17.078125 8.640625 16.828125 8.640625 L 12.988281 8.640625 C 12.652344 8.640625 12.378906 8.914062 12.378906 9.25 L 12.378906 12.644531 C 12.378906 12.980469 12.652344 13.253906 12.988281 13.253906 L 18.191406 13.253906 C 18.613281 13.257812 18.921875 12.804688 18.757812 12.414062 Z M 13.109375 12.519531 L 13.109375 9.371094 L 16.746094 9.371094 L 18.011719 12.519531 Z M 18.601562 19.257812 C 17.996094 19.257812 17.503906 19.753906 17.503906 20.359375 C 17.503906 20.964844 17.996094 21.457031 18.601562 21.457031 C 19.210938 21.457031 19.703125 20.964844 19.703125 20.359375 C 19.703125 19.753906 19.210938 19.257812 18.601562 19.257812 Z M 18.601562 20.722656 C 18.402344 20.722656 18.238281 20.558594 18.238281 20.359375 C 18.238281 20.15625 18.402344 19.992188 18.601562 19.992188 C 18.804688 19.992188 18.96875 20.15625 18.96875 20.359375 C 18.96875 20.558594 18.804688 20.722656 18.601562 20.722656 Z M 6.261719 8.640625 L 5.382812 8.640625 C 5.019531 8.640625 4.722656 8.933594 4.722656 9.296875 L 4.722656 10.761719 L 3.257812 10.761719 C 2.894531 10.761719 2.601562 11.058594 2.601562 11.421875 L 2.601562 12.300781 C 2.601562 12.664062 2.894531 12.960938 3.257812 12.960938 L 4.722656 12.960938 L 4.722656 14.425781 C 4.722656 14.789062 5.019531 15.085938 5.382812 15.085938 L 6.261719 15.085938 C 6.625 15.085938 6.921875 14.789062 6.921875 14.425781 L 6.921875 12.960938 L 8.386719 12.960938 C 8.75 12.960938 9.046875 12.664062 9.046875 12.300781 L 9.046875 11.421875 C 9.046875 11.058594 8.75 10.761719 8.386719 10.761719 L 6.921875 10.761719 L 6.921875 9.296875 C 6.921875 8.933594 6.625 8.640625 6.261719 8.640625 Z M 8.3125 11.496094 L 8.3125 12.226562 L 6.703125 12.226562 C 6.417969 12.226562 6.1875 12.457031 6.1875 12.742188 L 6.1875 14.351562 L 5.457031 14.351562 L 5.457031 12.742188 C 5.457031 12.457031 5.226562 12.226562 4.945312 12.226562 L 3.332031 12.226562 L 3.332031 11.496094 L 4.945312 11.496094 C 5.226562 11.496094 5.457031 11.265625 5.457031 10.984375 L 5.457031 9.371094 L 6.1875 9.371094 L 6.1875 10.984375 C 6.1875 11.265625 6.417969 11.496094 6.703125 11.496094 Z M 5.824219 19.257812 C 5.21875 19.257812 4.722656 19.753906 4.722656 20.359375 C 4.722656 20.964844 5.21875 21.457031 5.824219 21.457031 C 6.429688 21.457031 6.921875 20.964844 6.921875 20.359375 C 6.921875 19.753906 6.429688 19.257812 5.824219 19.257812 Z M 5.824219 20.722656 C 5.621094 20.722656 5.457031 20.558594 5.457031 20.359375 C 5.457031 20.15625 5.621094 19.992188 5.824219 19.992188 C 6.023438 19.992188 6.1875 20.15625 6.1875 20.359375 C 6.1875 20.558594 6.023438 20.722656 5.824219 20.722656 Z M 5.824219 20.722656 "/>
</g>
</svg>
